<svg width="37" height="36" viewBox="0 0 37 36" fill="none" xmlns="http://www.w3.org/2000/svg">
<circle cx="18.8" cy="18" r="18" fill="#FED788"/>
<path d="M24.947 15.696C24.8644 15.5738 24.7531 15.4738 24.6229 15.4048C24.4926 15.3357 24.3474 15.2998 24.2 15.3H21.5V13.5H23.48C23.7187 13.5 23.9476 13.4052 24.1164 13.2364C24.2852 13.0676 24.38 12.8387 24.38 12.6V8.99998C24.38 8.76128 24.2852 8.53236 24.1164 8.36358C23.9476 8.1948 23.7187 8.09998 23.48 8.09998H20.6C19.2156 8.09998 17.8878 8.64994 16.9089 9.62888C15.93 10.6078 15.38 11.9355 15.38 13.32V15.3H13.4C13.1613 15.3 12.9324 15.3948 12.7636 15.5636C12.5948 15.7324 12.5 15.9613 12.5 16.2V19.8C12.5 20.0387 12.5948 20.2676 12.7636 20.4364C12.9324 20.6052 13.1613 20.7 13.4 20.7H15.38V27C15.38 27.2387 15.4748 27.4676 15.6436 27.6364C15.8124 27.8052 16.0413 27.9 16.28 27.9H20.6C20.8387 27.9 21.0676 27.8052 21.2364 27.6364C21.4052 27.4676 21.5 27.2387 21.5 27V20.7H22.76C22.9403 20.7002 23.1164 20.6462 23.2656 20.5451C23.4149 20.444 23.5303 20.3004 23.597 20.133L25.037 16.533C25.0914 16.3967 25.1116 16.2492 25.0959 16.1033C25.0802 15.9574 25.0291 15.8176 24.947 15.696ZM22.148 18.9H20.6C20.3613 18.9 20.1324 18.9948 19.9636 19.1636C19.7948 19.3324 19.7 19.5613 19.7 19.8V26.1H17.18V19.8C17.18 19.5613 17.0852 19.3324 16.9164 19.1636C16.7476 18.9948 16.5187 18.9 16.28 18.9H14.3V17.1H16.28C16.5187 17.1 16.7476 17.0052 16.9164 16.8364C17.0852 16.6676 17.18 16.4387 17.18 16.2V13.32C17.1824 12.4137 17.5435 11.5452 18.1843 10.9043C18.8252 10.2634 19.6937 9.90235 20.6 9.89998H22.58V11.7H21.86C21.5553 11.6556 21.2447 11.6742 20.9474 11.7547C20.6502 11.8352 20.3727 11.9759 20.132 12.168C19.9859 12.3209 19.8724 12.5018 19.7981 12.6998C19.7239 12.8978 19.6905 13.1087 19.7 13.32V16.2C19.7 16.4387 19.7948 16.6676 19.9636 16.8364C20.1324 17.0052 20.3613 17.1 20.6 17.1H22.868L22.148 18.9Z" fill="white"/>
</svg>
