<svg width="37" height="36" viewBox="0 0 37 36" fill="none" xmlns="http://www.w3.org/2000/svg">
<circle cx="18.6" cy="18" r="18" fill="#FED788"/>
<path d="M18.6001 13.4999C17.7101 13.4999 16.8401 13.7639 16.1 14.2583C15.36 14.7528 14.7832 15.4556 14.4426 16.2779C14.102 17.1001 14.0129 18.0049 14.1866 18.8778C14.3602 19.7508 14.7888 20.5526 15.4181 21.1819C16.0475 21.8113 16.8493 22.2398 17.7222 22.4135C18.5951 22.5871 19.4999 22.498 20.3222 22.1574C21.1444 21.8168 21.8472 21.24 22.3417 20.5C22.8362 19.76 23.1001 18.89 23.1001 17.9999C23.1001 16.8065 22.626 15.6619 21.7821 14.818C20.9382 13.974 19.7936 13.4999 18.6001 13.4999V13.4999ZM18.6001 20.6999C18.0661 20.6999 17.5441 20.5416 17.1001 20.2449C16.656 19.9482 16.31 19.5265 16.1056 19.0332C15.9013 18.5398 15.8478 17.9969 15.952 17.4732C16.0562 16.9494 16.3133 16.4684 16.6909 16.0908C17.0685 15.7131 17.5496 15.456 18.0734 15.3518C18.5971 15.2476 19.14 15.3011 19.6333 15.5055C20.1267 15.7098 20.5484 16.0559 20.8451 16.4999C21.1417 16.9439 21.3001 17.4659 21.3001 17.9999C21.3001 18.716 21.0156 19.4028 20.5093 19.9091C20.0029 20.4155 19.3162 20.6999 18.6001 20.6999ZM23.1001 12.5999C22.9221 12.5999 22.7481 12.6527 22.6001 12.7516C22.4521 12.8505 22.3367 12.9911 22.2686 13.1555C22.2005 13.32 22.1827 13.5009 22.2174 13.6755C22.2521 13.8501 22.3378 14.0105 22.4637 14.1363C22.5896 14.2622 22.7499 14.3479 22.9245 14.3826C23.0991 14.4174 23.2801 14.3995 23.4445 14.3314C23.609 14.2633 23.7495 14.148 23.8484 14C23.9473 13.8519 24.0001 13.6779 24.0001 13.4999C24.0001 13.2612 23.9053 13.0323 23.7365 12.8635C23.5677 12.6948 23.3388 12.5999 23.1001 12.5999ZM27.5461 14.6159C27.5312 13.8468 27.3851 13.0859 27.1141 12.3659C26.8628 11.7108 26.4765 11.1158 25.9804 10.6197C25.4842 10.1235 24.8892 9.73723 24.2341 9.48594C23.5141 9.21495 22.7532 9.06885 21.9841 9.05394C21.1111 8.99994 20.8231 8.99994 18.6001 8.99994C16.3771 8.99994 16.0891 8.99994 15.2161 9.05394C14.447 9.06885 13.686 9.21495 12.9661 9.48594C12.311 9.73723 11.716 10.1235 11.2198 10.6197C10.7237 11.1158 10.3374 11.7108 10.0861 12.3659C9.81511 13.0859 9.66901 13.8468 9.6541 14.6159C9.6001 15.4979 9.6001 15.7859 9.6001 17.9999C9.6001 20.2139 9.6001 20.5019 9.6541 21.3839C9.66901 22.1531 9.81511 22.914 10.0861 23.6339C10.3374 24.2891 10.7237 24.884 11.2198 25.3802C11.716 25.8764 12.311 26.2626 12.9661 26.5139C13.686 26.7849 14.447 26.931 15.2161 26.9459C16.1161 26.9459 16.3771 26.9999 18.6001 26.9999C20.8231 26.9999 21.1111 26.9999 21.9841 26.9459C22.7532 26.931 23.5141 26.7849 24.2341 26.5139C24.8892 26.2626 25.4842 25.8764 25.9804 25.3802C26.4765 24.884 26.8628 24.2891 27.1141 23.6339C27.3851 22.914 27.5312 22.1531 27.5461 21.3839C27.5461 20.4839 27.6001 20.2139 27.6001 17.9999C27.6001 15.7859 27.6001 15.4979 27.5461 14.6159ZM25.7461 21.3029C25.7303 21.8741 25.624 22.4391 25.4311 22.9769C25.2716 23.402 25.0195 23.7863 24.6931 24.1019C24.3794 24.4285 23.9943 24.678 23.5681 24.8309C23.029 25.0317 22.4602 25.1412 21.8851 25.1549C21.0391 25.1549 20.7781 25.1999 18.5911 25.1999C16.4041 25.1999 16.1521 25.1999 15.3061 25.1999C14.7319 25.1851 14.1638 25.0788 13.6231 24.8849C13.198 24.7254 12.8137 24.4734 12.4981 24.1469C12.1715 23.8332 11.922 23.4482 11.7691 23.0219C11.5691 22.4857 11.4596 21.92 11.4451 21.3479C11.4451 20.4479 11.4451 20.2229 11.4451 18.0449C11.4451 15.8669 11.4451 15.6059 11.4451 14.7419C11.4606 14.167 11.5701 13.5985 11.7691 13.0589C11.9244 12.6365 12.1737 12.2549 12.4981 11.9429C12.8118 11.6164 13.1969 11.3669 13.6231 11.2139C14.1622 11.0131 14.731 10.9036 15.3061 10.8899C16.1521 10.7999 16.4131 10.7999 18.6001 10.7999C20.7871 10.7999 21.0481 10.7999 21.8941 10.7999C22.472 10.8146 23.0436 10.9241 23.5861 11.1239C24.0085 11.2792 24.3901 11.5285 24.7021 11.8529C25.0287 12.1667 25.2782 12.5517 25.4311 12.9779C25.6514 13.5256 25.7762 14.1071 25.8001 14.6969C25.8001 15.5969 25.8451 15.8219 25.8451 17.9999C25.8451 20.1779 25.8001 20.4389 25.8001 21.3029H25.7461Z" fill="white"/>
</svg>
