<svg width="59" height="59" viewBox="0 0 59 59" fill="none" xmlns="http://www.w3.org/2000/svg">
<path d="M20.7975 27.7546L34.7117 13.865C34.9402 13.6346 35.2121 13.4517 35.5117 13.3269C35.8112 13.2021 36.1325 13.1378 36.4571 13.1378C36.7816 13.1378 37.1029 13.2021 37.4025 13.3269C37.7021 13.4517 37.974 13.6346 38.2025 13.865C38.6604 14.3256 38.9174 14.9487 38.9174 15.5981C38.9174 16.2476 38.6604 16.8706 38.2025 17.3312L26.0337 29.6229L38.2025 41.7917C38.6604 42.2523 38.9174 42.8753 38.9174 43.5248C38.9174 44.1742 38.6604 44.7973 38.2025 45.2579C37.9748 45.4902 37.7033 45.675 37.4037 45.8016C37.1041 45.9282 36.7823 45.9941 36.4571 45.9954C36.1318 45.9941 35.8101 45.9282 35.5105 45.8016C35.2108 45.675 34.9393 45.4902 34.7117 45.2579L20.7975 31.3683C20.548 31.1381 20.3488 30.8587 20.2126 30.5477C20.0764 30.2368 20.0061 29.9009 20.0061 29.5614C20.0061 29.2219 20.0764 28.8861 20.2126 28.5751C20.3488 28.2642 20.548 27.9848 20.7975 27.7546Z" fill="#FFBE46"/>
</svg>
