<svg width="59" height="59" viewBox="0 0 59 59" fill="none" xmlns="http://www.w3.org/2000/svg">
<path d="M38.2024 27.7546L24.2882 13.865C24.0597 13.6346 23.7878 13.4517 23.4882 13.3269C23.1886 13.2021 22.8673 13.1378 22.5428 13.1378C22.2183 13.1378 21.897 13.2021 21.5974 13.3269C21.2978 13.4517 21.0259 13.6346 20.7974 13.865C20.3395 14.3256 20.0825 14.9487 20.0825 15.5981C20.0825 16.2476 20.3395 16.8706 20.7974 17.3312L32.9661 29.6229L20.7974 41.7917C20.3395 42.2523 20.0825 42.8753 20.0825 43.5248C20.0825 44.1742 20.3395 44.7973 20.7974 45.2579C21.0251 45.4902 21.2966 45.675 21.5962 45.8016C21.8958 45.9282 22.2175 45.9941 22.5428 45.9954C22.8681 45.9941 23.1898 45.9282 23.4894 45.8016C23.789 45.675 24.0605 45.4902 24.2882 45.2579L38.2024 31.3683C38.4519 31.1381 38.6511 30.8587 38.7873 30.5477C38.9235 30.2368 38.9938 29.9009 38.9938 29.5614C38.9938 29.2219 38.9235 28.8861 38.7873 28.5751C38.6511 28.2642 38.4519 27.9848 38.2024 27.7546Z" fill="#FFBE46"/>
</svg>
