<svg width="111" height="31" viewBox="0 0 111 31" fill="none" xmlns="http://www.w3.org/2000/svg">
<path d="M22.4998 18.4999C21.7613 18.5048 21.033 18.6732 20.3673 18.9931C19.7016 19.313 19.1151 19.7763 18.6498 20.3499L12.2748 17.4124C12.5746 16.4946 12.5746 15.5052 12.2748 14.5874L18.6498 11.6499C19.4018 12.5574 20.4503 13.17 21.61 13.3797C22.7698 13.5894 23.9663 13.3827 24.9885 12.796C26.0107 12.2094 26.7928 11.2805 27.1968 10.1733C27.6007 9.06616 27.6006 7.85188 27.1964 6.74478C26.7923 5.63769 26.01 4.70895 24.9877 4.12248C23.9654 3.53602 22.7688 3.32952 21.6091 3.53943C20.4494 3.74934 19.4011 4.36217 18.6492 5.26977C17.8974 6.17736 17.4903 7.32137 17.4998 8.4999C17.5036 8.79769 17.5329 9.09461 17.5873 9.3874L10.9873 12.4249C10.2837 11.7369 9.39263 11.2718 8.42583 11.0879C7.45903 10.9041 6.45947 11.0096 5.55238 11.3913C4.6453 11.773 3.87102 12.4139 3.32657 13.2337C2.78212 14.0535 2.4917 15.0158 2.4917 15.9999C2.4917 16.984 2.78212 17.9463 3.32657 18.7661C3.87102 19.5859 4.6453 20.2268 5.55238 20.6085C6.45947 20.9902 7.45903 21.0957 8.42583 20.9119C9.39263 20.728 10.2837 20.2629 10.9873 19.5749L17.5873 22.6124C17.5329 22.9052 17.5036 23.2021 17.4998 23.4999C17.4998 24.4888 17.7931 25.4555 18.3425 26.2778C18.8919 27.1 19.6728 27.7409 20.5864 28.1193C21.5 28.4977 22.5054 28.5968 23.4753 28.4038C24.4452 28.2109 25.3361 27.7347 26.0354 27.0354C26.7346 26.3362 27.2108 25.4453 27.4037 24.4753C27.5967 23.5054 27.4977 22.5001 27.1192 21.5865C26.7408 20.6729 26.0999 19.892 25.2777 19.3426C24.4554 18.7931 23.4887 18.4999 22.4998 18.4999ZM22.4998 5.9999C22.9943 5.9999 23.4776 6.14652 23.8887 6.42123C24.2999 6.69593 24.6203 7.08638 24.8095 7.54319C24.9987 8.00001 25.0482 8.50267 24.9518 8.98762C24.8553 9.47258 24.6172 9.91803 24.2676 10.2677C23.918 10.6173 23.4725 10.8554 22.9875 10.9519C22.5026 11.0483 21.9999 10.9988 21.5431 10.8096C21.0863 10.6204 20.6959 10.2999 20.4211 9.88882C20.1464 9.4777 19.9998 8.99435 19.9998 8.4999C19.9998 7.83686 20.2632 7.20097 20.7321 6.73213C21.2009 6.26329 21.8368 5.9999 22.4998 5.9999ZM7.49982 18.4999C7.00537 18.4999 6.52202 18.3533 6.1109 18.0786C5.69977 17.8039 5.37934 17.4134 5.19012 16.9566C5.0009 16.4998 4.9514 15.9971 5.04786 15.5122C5.14432 15.0272 5.38242 14.5818 5.73205 14.2321C6.08169 13.8825 6.52714 13.6444 7.0121 13.5479C7.49705 13.4515 7.99971 13.501 8.45653 13.6902C8.91335 13.8794 9.30379 14.1999 9.5785 14.611C9.8532 15.0221 9.99982 15.5054 9.99982 15.9999C9.99982 16.6629 9.73643 17.2988 9.26759 17.7677C8.79875 18.2365 8.16286 18.4999 7.49982 18.4999ZM22.4998 25.9999C22.0054 25.9999 21.522 25.8533 21.1109 25.5786C20.6998 25.3039 20.3793 24.9134 20.1901 24.4566C20.0009 23.9998 19.9514 23.4971 20.0479 23.0122C20.1443 22.5272 20.3824 22.0818 20.7321 21.7321C21.0817 21.3825 21.5271 21.1444 22.0121 21.0479C22.497 20.9515 22.9997 21.001 23.4565 21.1902C23.9133 21.3794 24.3038 21.6999 24.5785 22.111C24.8532 22.5221 24.9998 23.0054 24.9998 23.4999C24.9998 24.1629 24.7364 24.7988 24.2676 25.2677C23.7987 25.7365 23.1629 25.9999 22.4998 25.9999Z" fill="#FFBE46"/>
<path d="M48.112 24.26C46.604 24.26 45.3387 24.0347 44.316 23.584C43.2933 23.116 42.5047 22.518 41.95 21.79C41.4127 21.0447 41.1267 20.256 41.092 19.424C41.092 19.2853 41.144 19.164 41.248 19.06C41.3693 18.9387 41.508 18.878 41.664 18.878H42.99C43.198 18.878 43.354 18.93 43.458 19.034C43.562 19.138 43.6313 19.2593 43.666 19.398C43.7527 19.814 43.9607 20.23 44.29 20.646C44.6367 21.0447 45.1133 21.3827 45.72 21.66C46.344 21.92 47.1413 22.05 48.112 22.05C49.6027 22.05 50.6947 21.79 51.388 21.27C52.0987 20.7327 52.454 20.022 52.454 19.138C52.454 18.5313 52.2633 18.046 51.882 17.682C51.518 17.3007 50.9547 16.9627 50.192 16.668C49.4293 16.3733 48.4413 16.0527 47.228 15.706C45.9627 15.342 44.914 14.9433 44.082 14.51C43.25 14.0767 42.626 13.5393 42.21 12.898C41.8113 12.2567 41.612 11.442 41.612 10.454C41.612 9.518 41.8633 8.686 42.366 7.958C42.8687 7.21267 43.588 6.62333 44.524 6.19C45.4773 5.75667 46.63 5.54 47.982 5.54C49.0567 5.54 49.9927 5.68733 50.79 5.982C51.6047 6.25933 52.2807 6.64067 52.818 7.126C53.3553 7.594 53.7627 8.10533 54.04 8.66C54.3173 9.19733 54.4647 9.726 54.482 10.246C54.482 10.3673 54.4387 10.4887 54.352 10.61C54.2653 10.714 54.1267 10.766 53.936 10.766H52.558C52.4367 10.766 52.3067 10.7313 52.168 10.662C52.0467 10.5927 51.9513 10.4627 51.882 10.272C51.778 9.56133 51.3793 8.96333 50.686 8.478C49.9927 7.99267 49.0913 7.75 47.982 7.75C46.8553 7.75 45.9367 7.96667 45.226 8.4C44.5327 8.83333 44.186 9.50933 44.186 10.428C44.186 11.0173 44.3507 11.5113 44.68 11.91C45.0093 12.2913 45.5293 12.6293 46.24 12.924C46.9507 13.2187 47.878 13.5307 49.022 13.86C50.4087 14.2413 51.544 14.6487 52.428 15.082C53.312 15.498 53.962 16.0267 54.378 16.668C54.8113 17.292 55.028 18.098 55.028 19.086C55.028 20.178 54.742 21.114 54.17 21.894C53.598 22.6567 52.792 23.246 51.752 23.662C50.7293 24.0607 49.516 24.26 48.112 24.26ZM58.7218 24C58.5485 24 58.4012 23.948 58.2798 23.844C58.1758 23.7227 58.1238 23.5753 58.1238 23.402V6.138C58.1238 5.96467 58.1758 5.826 58.2798 5.722C58.4012 5.60067 58.5485 5.54 58.7218 5.54H60.0218C60.2125 5.54 60.3598 5.60067 60.4638 5.722C60.5678 5.826 60.6198 5.96467 60.6198 6.138V12.196C61.0878 11.6067 61.6598 11.13 62.3358 10.766C63.0118 10.402 63.8698 10.22 64.9098 10.22C66.0365 10.22 66.9898 10.4713 67.7698 10.974C68.5672 11.4593 69.1652 12.144 69.5638 13.028C69.9798 13.8947 70.1878 14.9087 70.1878 16.07V23.402C70.1878 23.5753 70.1358 23.7227 70.0318 23.844C69.9278 23.948 69.7805 24 69.5898 24H68.2898C68.1165 24 67.9692 23.948 67.8478 23.844C67.7438 23.7227 67.6918 23.5753 67.6918 23.402V16.2C67.6918 14.9867 67.3972 14.042 66.8078 13.366C66.2185 12.6727 65.3518 12.326 64.2078 12.326C63.1332 12.326 62.2665 12.6727 61.6078 13.366C60.9492 14.042 60.6198 14.9867 60.6198 16.2V23.402C60.6198 23.5753 60.5678 23.7227 60.4638 23.844C60.3598 23.948 60.2125 24 60.0218 24H58.7218ZM77.7116 24.26C76.8449 24.26 76.0562 24.0867 75.3456 23.74C74.6349 23.3933 74.0629 22.9253 73.6296 22.336C73.1962 21.7467 72.9796 21.0793 72.9796 20.334C72.9796 19.138 73.4649 18.1847 74.4356 17.474C75.4062 16.7633 76.6716 16.2953 78.2316 16.07L82.1056 15.524V14.77C82.1056 13.938 81.8629 13.288 81.3776 12.82C80.9096 12.352 80.1382 12.118 79.0636 12.118C78.2836 12.118 77.6509 12.274 77.1656 12.586C76.6976 12.898 76.3682 13.2967 76.1776 13.782C76.0736 14.042 75.8916 14.172 75.6316 14.172H74.4616C74.2709 14.172 74.1236 14.12 74.0196 14.016C73.9329 13.8947 73.8896 13.756 73.8896 13.6C73.8896 13.34 73.9849 13.0193 74.1756 12.638C74.3836 12.2567 74.6956 11.884 75.1116 11.52C75.5276 11.156 76.0562 10.8527 76.6976 10.61C77.3562 10.35 78.1536 10.22 79.0896 10.22C80.1296 10.22 81.0049 10.3587 81.7156 10.636C82.4262 10.896 82.9809 11.2513 83.3796 11.702C83.7956 12.1527 84.0902 12.664 84.2636 13.236C84.4542 13.808 84.5496 14.3887 84.5496 14.978V23.402C84.5496 23.5753 84.4889 23.7227 84.3676 23.844C84.2636 23.948 84.1249 24 83.9516 24H82.7556C82.5649 24 82.4176 23.948 82.3136 23.844C82.2096 23.7227 82.1576 23.5753 82.1576 23.402V22.284C81.9322 22.596 81.6289 22.908 81.2476 23.22C80.8662 23.5147 80.3896 23.766 79.8176 23.974C79.2456 24.1647 78.5436 24.26 77.7116 24.26ZM78.2576 22.31C78.9682 22.31 79.6182 22.1627 80.2076 21.868C80.7969 21.556 81.2562 21.0793 81.5856 20.438C81.9322 19.7967 82.1056 18.9907 82.1056 18.02V17.292L79.0896 17.734C77.8589 17.9073 76.9316 18.202 76.3076 18.618C75.6836 19.0167 75.3716 19.528 75.3716 20.152C75.3716 20.6373 75.5102 21.0447 75.7876 21.374C76.0822 21.686 76.4462 21.92 76.8796 22.076C77.3302 22.232 77.7896 22.31 78.2576 22.31ZM88.8853 24C88.7119 24 88.5646 23.948 88.4433 23.844C88.3393 23.7227 88.2873 23.5753 88.2873 23.402V11.104C88.2873 10.9307 88.3393 10.7833 88.4433 10.662C88.5646 10.5407 88.7119 10.48 88.8853 10.48H90.0813C90.2546 10.48 90.4019 10.5407 90.5233 10.662C90.6446 10.7833 90.7053 10.9307 90.7053 11.104V12.248C91.0519 11.6587 91.5286 11.2167 92.1353 10.922C92.7419 10.6273 93.4699 10.48 94.3193 10.48H95.3593C95.5326 10.48 95.6713 10.5407 95.7753 10.662C95.8793 10.766 95.9313 10.9047 95.9313 11.078V12.144C95.9313 12.3173 95.8793 12.456 95.7753 12.56C95.6713 12.664 95.5326 12.716 95.3593 12.716H93.7993C92.8633 12.716 92.1266 12.9933 91.5893 13.548C91.0519 14.0853 90.7833 14.822 90.7833 15.758V23.402C90.7833 23.5753 90.7226 23.7227 90.6013 23.844C90.4799 23.948 90.3326 24 90.1593 24H88.8853ZM103.292 24.26C101.507 24.26 100.086 23.714 99.0283 22.622C97.971 21.5127 97.3903 20.0047 97.2863 18.098C97.269 17.8727 97.2603 17.5867 97.2603 17.24C97.2603 16.876 97.269 16.5813 97.2863 16.356C97.3557 15.1253 97.6417 14.0507 98.1443 13.132C98.647 12.196 99.3317 11.4767 100.198 10.974C101.082 10.4713 102.114 10.22 103.292 10.22C104.61 10.22 105.71 10.4973 106.594 11.052C107.496 11.6067 108.18 12.3953 108.648 13.418C109.116 14.4407 109.35 15.6367 109.35 17.006V17.448C109.35 17.6387 109.29 17.786 109.168 17.89C109.064 17.994 108.926 18.046 108.752 18.046H99.7563C99.7563 18.0633 99.7563 18.098 99.7563 18.15C99.7563 18.202 99.7563 18.2453 99.7563 18.28C99.791 18.9907 99.947 19.658 100.224 20.282C100.502 20.8887 100.9 21.3827 101.42 21.764C101.94 22.1453 102.564 22.336 103.292 22.336C103.916 22.336 104.436 22.2407 104.852 22.05C105.268 21.8593 105.606 21.6513 105.866 21.426C106.126 21.1833 106.3 21.0013 106.386 20.88C106.542 20.6547 106.664 20.5247 106.75 20.49C106.837 20.438 106.976 20.412 107.166 20.412H108.414C108.588 20.412 108.726 20.464 108.83 20.568C108.952 20.6547 109.004 20.7847 108.986 20.958C108.969 21.218 108.83 21.5387 108.57 21.92C108.31 22.284 107.938 22.648 107.452 23.012C106.967 23.376 106.378 23.6793 105.684 23.922C104.991 24.1473 104.194 24.26 103.292 24.26ZM99.7563 16.252H106.88V16.174C106.88 15.394 106.733 14.7007 106.438 14.094C106.161 13.4873 105.754 13.0107 105.216 12.664C104.679 12.3 104.038 12.118 103.292 12.118C102.547 12.118 101.906 12.3 101.368 12.664C100.848 13.0107 100.45 13.4873 100.172 14.094C99.895 14.7007 99.7563 15.394 99.7563 16.174V16.252Z" fill="#FFBE46"/>
</svg>
