<svg width="37" height="36" viewBox="0 0 37 36" fill="none" xmlns="http://www.w3.org/2000/svg">
<circle cx="18.2" cy="18" r="18" fill="#FED788"/>
<path d="M27.4383 9.38493C27.182 9.17175 26.8728 9.03203 26.5434 8.98065C26.2141 8.92927 25.877 8.96815 25.568 9.09314L9.43914 15.605C9.09422 15.7469 8.80061 15.9903 8.59728 16.303C8.39396 16.6157 8.29053 16.9828 8.30074 17.3557C8.31094 17.7285 8.43429 18.0894 8.65441 18.3905C8.87454 18.6916 9.18102 18.9186 9.53319 19.0415L12.7957 20.1761L14.6141 26.1896C14.6389 26.27 14.6747 26.3464 14.7207 26.4168C14.7277 26.4276 14.7375 26.4356 14.7449 26.4461C14.798 26.5202 14.8622 26.5857 14.9352 26.6403C14.956 26.6561 14.9758 26.6709 14.998 26.685C15.0835 26.7417 15.1781 26.7831 15.2777 26.8075L15.2884 26.8084L15.2944 26.811C15.3543 26.8232 15.4152 26.8293 15.4763 26.8294C15.4822 26.8294 15.4874 26.8266 15.4932 26.8265C15.5855 26.8249 15.6769 26.809 15.7642 26.7794C15.7845 26.7725 15.802 26.7609 15.8217 26.7526C15.8868 26.7256 15.9485 26.691 16.0055 26.6495C16.0512 26.611 16.0969 26.5726 16.1425 26.5341L18.5745 23.8491L22.2017 26.6589C22.5211 26.9075 22.9141 27.0427 23.3188 27.043C23.7429 27.0425 24.1539 26.8962 24.4829 26.6286C24.8119 26.3611 25.0389 25.9885 25.1259 25.5735L28.0623 11.1586C28.1288 10.8341 28.1059 10.4977 27.996 10.1853C27.8861 9.87288 27.6933 9.59623 27.4383 9.38493V9.38493ZM15.8332 20.4627C15.7084 20.587 15.6231 20.7453 15.588 20.9179L15.3094 22.2715L14.6038 19.9378L18.2625 18.0325L15.8332 20.4627ZM23.3048 25.236L19.0183 21.9155C18.839 21.7769 18.6141 21.711 18.3883 21.7308C18.1625 21.7507 17.9525 21.8549 17.8002 22.0227L17.0213 22.8824L17.2966 21.5446L23.6713 15.1699C23.8234 15.0179 23.9161 14.8165 23.9326 14.6021C23.9491 14.3877 23.8882 14.1745 23.761 14.0011C23.6338 13.8277 23.4487 13.7055 23.2393 13.6568C23.0298 13.6081 22.8099 13.636 22.6192 13.7355L13.4705 18.4989L10.1185 17.2722L26.2992 10.7991L23.3048 25.236Z" fill="white"/>
</svg>
