<svg width="37" height="36" viewBox="0 0 37 36" fill="none" xmlns="http://www.w3.org/2000/svg">
<circle cx="18.3999" cy="18" r="18" fill="#FED788"/>
<path d="M28.2921 10.7551C28.2922 10.5962 28.2502 10.44 28.1703 10.3026C28.0904 10.1651 27.9756 10.0513 27.8374 9.9727C27.6992 9.8941 27.5427 9.85353 27.3837 9.8551C27.2248 9.85668 27.069 9.90036 26.9325 9.98169C26.4057 10.2952 25.8385 10.5354 25.2468 10.6954C24.4016 9.9702 23.3238 9.57337 22.2102 9.57742C20.9885 9.57883 19.8152 10.055 18.938 10.9053C18.0607 11.7556 17.5483 12.9135 17.5089 14.1346C15.1005 13.7505 12.9177 12.4934 11.3767 10.6031C11.2838 10.4904 11.1653 10.4018 11.031 10.3446C10.8967 10.2873 10.7506 10.2633 10.605 10.2744C10.4595 10.2863 10.3192 10.3336 10.1961 10.412C10.0729 10.4904 9.97076 10.5976 9.89838 10.7244C9.52715 11.3722 9.31394 12.0984 9.27607 12.8441C9.2382 13.5898 9.37672 14.3339 9.6804 15.0161L9.67865 15.0178C9.54216 15.1019 9.42952 15.2195 9.3515 15.3596C9.27349 15.4996 9.2327 15.6573 9.23304 15.8176C9.23139 15.9499 9.23932 16.082 9.25677 16.2131C9.3487 17.3456 9.85058 18.4056 10.6683 19.1944C10.6128 19.3001 10.579 19.4157 10.5687 19.5346C10.5584 19.6536 10.572 19.7733 10.6085 19.887C10.965 20.9977 11.7232 21.9354 12.7346 22.5166C11.707 22.914 10.5975 23.0525 9.50374 22.9201C9.30131 22.8947 9.09625 22.9388 8.92221 23.0453C8.74816 23.1517 8.61547 23.3142 8.54589 23.506C8.47631 23.6978 8.47397 23.9075 8.53927 24.1008C8.60456 24.2941 8.73361 24.4595 8.90524 24.5698C10.7863 25.7813 12.9766 26.4254 15.214 26.4252C17.7514 26.4537 20.227 25.6429 22.2559 24.1189C24.2847 22.5948 25.753 20.443 26.4324 17.9982C26.7501 16.9331 26.9124 15.8278 26.914 14.7164C26.914 14.6575 26.914 14.5968 26.9131 14.5362C27.383 14.0294 27.7471 13.434 27.9838 12.7847C28.2206 12.1354 28.3254 11.4454 28.2921 10.7551V10.7551ZM25.3161 13.6459C25.1675 13.8217 25.0923 14.048 25.1061 14.2778C25.1149 14.4263 25.114 14.5757 25.114 14.7164C25.1122 15.6555 24.9745 16.5895 24.7053 17.4893C24.1505 19.5696 22.9136 21.4034 21.1927 22.6972C19.4718 23.9911 17.3665 24.6699 15.214 24.6252C14.4408 24.6254 13.6703 24.5345 12.9183 24.3545C13.8772 24.0454 14.7738 23.569 15.5665 22.9473C15.7125 22.8324 15.8193 22.675 15.8724 22.4969C15.9254 22.3188 15.922 22.1287 15.8627 21.9526C15.8034 21.7765 15.6911 21.623 15.5411 21.5133C15.3911 21.4036 15.2108 21.343 15.025 21.3398C14.277 21.3282 13.5627 21.0266 13.0326 20.4987C13.167 20.4732 13.3006 20.4416 13.4333 20.4038C13.6278 20.3484 13.7979 20.2293 13.9163 20.0655C14.0348 19.9017 14.0947 19.7028 14.0864 19.5009C14.078 19.2989 14.002 19.1056 13.8705 18.9521C13.7389 18.7987 13.5596 18.6939 13.3613 18.6547C12.9271 18.569 12.5185 18.3843 12.1673 18.1149C11.816 17.8456 11.5317 17.4988 11.3363 17.1017C11.4989 17.1239 11.6626 17.1377 11.8267 17.143C12.0216 17.146 12.2124 17.0868 12.3715 16.9742C12.5306 16.8615 12.6498 16.7012 12.7118 16.5164C12.7711 16.3298 12.7681 16.1291 12.7031 15.9444C12.638 15.7598 12.5146 15.6014 12.3514 15.4933C11.9555 15.2296 11.6313 14.8718 11.4076 14.452C11.184 14.0322 11.068 13.5634 11.07 13.0878C11.07 13.028 11.0717 12.9682 11.0752 12.9093C13.0924 14.7906 15.7087 15.8995 18.4633 16.0409C18.6024 16.0464 18.7409 16.0202 18.8683 15.9643C18.9957 15.9084 19.1088 15.8243 19.199 15.7183C19.2882 15.6113 19.3515 15.485 19.3836 15.3495C19.4158 15.2139 19.4161 15.0727 19.3844 14.937C19.3329 14.7222 19.3067 14.5022 19.3062 14.2813C19.307 13.5114 19.6132 12.7732 20.1576 12.2288C20.702 11.6844 21.4402 11.3782 22.2101 11.3774C22.6062 11.3763 22.9983 11.4574 23.3615 11.6155C23.7247 11.7736 24.0512 12.0052 24.3203 12.2959C24.4241 12.4075 24.5548 12.4908 24.6999 12.5377C24.8449 12.5846 24.9996 12.5937 25.1491 12.564C25.5188 12.492 25.8833 12.3951 26.2399 12.2739C25.9966 12.7716 25.6858 13.2333 25.3161 13.6459V13.6459Z" fill="white"/>
</svg>
